<svg xmlns="http://www.w3.org/2000/svg" width="94.333" height="68.667" xml:space="preserve">
	<g fill-rule="evenodd" clip-rule="evenodd">
		<path d="M3.246 4H45.92l.101 62.064H3.246V23.089c.317.306.51.555.7.8 7.895 10.093 15.602 20.76 23.087 31.481.984 1.41 1.812 4.24 4.498 3.197.363-11.804.198-26.122.198-38.977 0-1.759-.198-4.299.398-5.096.927-1.229 3.897-.649 5.099-1.3.865-2.254-1.318-1.897-3.298-1.799a82.17 82.17 0 0 1-3.797.101c-1.949 0-6.554-.782-6.797.599-.28 1.581 1.104 1.363 2.395 1.5 3.18.337 3.203 1.162 3.203 4.897 0 9.161.206 19.535.098 28.583-.161.209-.59-.474-.8-.799-7.205-11.218-15.156-21.892-23.584-32.28-.601-.742-1.4-1.767-1.4-1.767V4zM48.817 4v29.687l.102-.001v-.002c7.984-1.118 13.709-5.233 16.692-11.792.771-1.698 2.17-4.777 1.497-6.896-.486-1.532-2.278-1.642-4.095-1.999-.218-.592-.144-1.553.399-1.698 5.56.434 11.604-.05 16.689.199.233.558.167 1.097-.102 1.598-1.42.107-3.17.248-4.099.999-.811.659-1.318 2.148-1.796 3.399-3.301 8.583-9.882 13.994-19.493 16.49 10.64 2.298 16.724 8.992 20.191 18.79.477 1.357 1.01 2.94 1.997 3.496 1.064.603 2.926.324 3.899.9.121.425.121.876 0 1.3-1.074.554-2.633.169-4.197.1a102.144 102.144 0 0 0-9.396 0c-1.595.074-4.657.884-3.896-1.399 1.534-.564 3.505-.503 4.098-1.899.205-.49.179-1.084.097-1.797-.508-4.504-3.473-8.815-6.396-11.795-3.182-3.241-7.214-5.523-12.093-5.996a.7.7 0 0 0-.102-.007v30.39h42.879V4H48.817z"/>
	</g>
</svg>