<svg xmlns="http://www.w3.org/2000/svg" xml:space="preserve" width="329.662" height="64.654"><path d="M662.578 561.02h-24.551l-125 318.613c-17.285 43.535-28.449 48.555-45.195 48.555v15.625H606.23v-15.625c-30.136 0-41.855-6.141-41.855-18.418 0-3.907 1.113-7.813 2.793-12.832l71.426-191.395c10.594-28.469 21.758-65.285 22.871-75.332 4.465 19.527 13.398 51.891 20.644 77l66.407 225.437h23.996l68.633-227.105c8.933-29.582 18.418-65.285 19.531-75.332 6.14 22.879 14.5 50.223 23.445 74.207l59.141 161.27c5.019 13.945 7.812 25.664 7.812 34.042 0 21.758-15.058 28.458-36.269 28.458v15.625H1029.2v-15.625c-23.44 0-41.29-20.645-63.067-78.68L856.77 561.02h-22.883l-89.278 275.097-82.031-275.097M1040.91 743.48h121.08c0 40.176-18.41 67.52-49.66 67.52-41.29 0-65.85-34.035-71.42-67.52zm81.47-141.726c32.37 0 60.82 14.5 71.98 34.598l10.04-4.473c-2.78-20.645-23.43-74.219-93.74-74.219-71.99 0-109.93 65.848-109.93 133.367 0 77.004 50.77 144.524 122.2 144.524 59.71 0 86.49-53.567 86.49-104.336 0-8.379-3.35-11.172-10.04-11.172h-161.26c0-72.539 40.73-118.289 84.26-118.289M1312.66 626.859c0-34.589 16.18-49.668 49.1-49.668 40.17 0 83.7 29.024 83.7 111.602 0 73.664-39.62 104.914-74.78 104.914-31.79 0-56.35-23.441-56.91-51.898-.56-34.032-1.11-61.942-1.11-114.95zm1.11 150.106c20.09 39.621 49.67 58.586 78.12 58.586 45.76 0 101-39.051 101-130.008 0-93.195-73.65-147.883-136.72-147.883-36.81 0-65.27 14.512-87.6 31.817V903.07c0 14.512-3.9 21.211-21.21 21.211h-7.24v15.625l69.19 11.719c1.67.555 2.79 1.113 4.46 1.113 3.34 0 7.26-1.679 7.26-3.906 0-5.586-5.59-85.371-7.26-171.867M1691.54 711.117c-51.33-11.152-100.44-29.57-100.44-77.558 0-24.551 17.86-40.176 40.18-40.176 35.71 0 55.24 26.777 58.59 65.285 1.67 18.973 1.67 39.059 1.67 52.449zm6.14-89.844c-11.72-41.289-40.73-61.378-83.7-61.378-39.61 0-71.99 22.324-71.99 63.613 0 39.062 37.39 81.476 149.55 106.027v30.137c0 41.844-20.64 53.562-48.54 53.562-32.92 0-42.41-16.179-42.41-31.25 0-5.019 2.79-11.718 2.79-16.734 0-16.184-12.28-24.562-24.55-24.562-12.83 0-25.67 8.937-25.67 28.464 0 37.942 43.52 66.399 98.21 66.399 49.67 0 86.49-18.41 86.49-70.301 0-42.973-2.23-92.629-2.23-116.633 0-49.101 5.58-67.519 20.09-67.519v-15.625h-49.11c-3.9 15.078-6.7 34.043-6.7 55.8h-2.23M1946.53 835.551c25.69 0 38.52-18.41 38.52-37.383 0-20.645-8.38-35.711-24.55-35.711-28.46 0-15.08 31.25-39.06 31.25-18.97 0-44.65-26.223-44.65-74.777V616.254c0-30.684 2.22-35.156 35.15-35.156v-15.625h-102.1v15.625c17.28 0 21.2 8.379 21.2 36.269V781.43c0 14.511-3.92 21.211-21.2 21.211v16.172l60.81 16.738c2.8-17.293 4.48-34.59 4.48-61.934 16.17 39.617 45.19 61.934 71.4 61.934M2216.6 632.992c-7.81-25.664-30.12-75.332-94.86-75.332-70.28 0-110.46 63.613-110.46 130.586 0 71.426 47.42 147.305 131.1 147.305 49.12 0 73.67-27.891 73.67-53.567 0-23.433-15.07-34.031-30.7-34.031-12.83 0-26.23 8.926-26.23 27.891 0 20.097-12.83 32.929-36.82 32.929-40.73 0-68.07-44.082-68.07-98.769 0-67.52 34.61-109.922 84.81-109.922 29.03 0 53.58 16.738 67.52 37.938l10.04-5.028M2263.47 924.281h-7.27v15.625l69.2 11.719c1.68.555 2.79 1.113 4.47 1.113 3.34 0 7.25-1.679 7.25-3.906 0-6.133-8.38-70.312-8.38-171.309 22.32 38.497 58.59 58.028 98.77 58.028 40.18 0 65.29-26.778 65.29-75.332V629.086c0-41.289 5.02-47.988 20.65-47.988v-15.625h-97.09v15.625c25.66 0 30.68 6.14 30.68 28.457v135.047c0 37.382-16.74 55.246-46.31 55.246-34.04 0-70.31-25.672-70.31-80.364V606.215c0-20.645 5.02-25.117 31.25-25.117v-15.625h-98.2v15.625c17.28 0 21.19 8.379 21.19 47.988V903.07c0 14.512-3.91 21.211-21.19 21.211M2650.69 917.023c0-16.179-12.83-29.011-29-29.011-16.18 0-29.01 12.832-29.01 29.011 0 16.184 12.83 28.457 29.01 28.457 16.17 0 29-12.273 29-28.457zm-10.6-287.937c0-38.496 6.15-47.988 28.47-47.988v-15.625H2565.9v15.625c20.64 0 28.46 9.492 28.46 47.988v155.137c0 14.5-8.38 18.418-28.46 18.418v16.172l74.19 16.738V629.086M2862.72 713.352l18.99 50.226c3.91 10.039 6.13 19.531 6.13 30.684 0 11.164-7.81 16.738-25.12 16.738v15.625h77.58V811c-11.17 0-23.43-20.086-39.63-61.375l-25.66-65.852c-13.95-35.156-31.8-80.91-44.65-118.3-.55-2.227-8.92-2.785-13.94-2.785-5.59 0-11.72.558-12.29 2.785-12.26 36.281-27.89 78.125-45.19 118.867l-37.93 90.39c-11.72 27.911-22.89 36.27-30.14 36.27v15.625h106.58V811h-15.08c-10.6 0-16.74-5.02-16.74-15.059 0-7.257 2.8-14.511 5.59-21.765l25.12-64.172c14.49-37.383 21.76-57.481 33.47-90.957 10.61 34.043 19.54 57.48 32.91 94.305M477.883 467.836v27.891H2940.3v-27.891H477.883" style="fill:#00f;fill-opacity:1;fill-rule:nonzero;stroke:none" transform="matrix(.13333 0 0 -.13333 -62.378 127.032)"/></svg>